<svg width="128" height="128" viewBox="0 0 128 128" fill="none" xmlns="http://www.w3.org/2000/svg">
  <defs>
    <linearGradient id="gradient" x1="0%" y1="0%" x2="100%" y2="100%">
      <stop offset="0%" style="stop-color:#4CAF50;stop-opacity:1" />
      <stop offset="100%" style="stop-color:#2196F3;stop-opacity:1" />
    </linearGradient>
  </defs>
  
  <!-- Background circle -->
  <circle cx="64" cy="64" r="60" fill="url(#gradient)" stroke="white" stroke-width="4"/>
  
  <!-- Chat bubble -->
  <path d="M32 40 C32 35, 35 32, 40 32 L80 32 C85 32, 88 35, 88 40 L88 60 C88 65, 85 68, 80 68 L50 68 L40 78 L40 68 C35 68, 32 65, 32 60 Z" fill="white" opacity="0.9"/>
  
  <!-- Chat lines -->
  <line x1="42" y1="45" x2="78" y2="45" stroke="url(#gradient)" stroke-width="3" stroke-linecap="round"/>
  <line x1="42" y1="52" x2="70" y2="52" stroke="url(#gradient)" stroke-width="3" stroke-linecap="round"/>
  <line x1="42" y1="59" x2="75" y2="59" stroke="url(#gradient)" stroke-width="3" stroke-linecap="round"/>
  
  <!-- Export arrow -->
  <path d="M85 75 L95 85 L85 95 M75 85 L95 85" stroke="white" stroke-width="4" stroke-linecap="round" stroke-linejoin="round" fill="none"/>
  
  <!-- Document lines -->
  <rect x="90" y="70" width="25" height="30" rx="3" fill="white" opacity="0.9"/>
  <line x1="95" y1="78" x2="110" y2="78" stroke="url(#gradient)" stroke-width="2" stroke-linecap="round"/>
  <line x1="95" y1="83" x2="108" y2="83" stroke="url(#gradient)" stroke-width="2" stroke-linecap="round"/>
  <line x1="95" y1="88" x2="110" y2="88" stroke="url(#gradient)" stroke-width="2" stroke-linecap="round"/>
  <line x1="95" y1="93" x2="105" y2="93" stroke="url(#gradient)" stroke-width="2" stroke-linecap="round"/>
</svg>